<?xml version="1.0" standalone="no"?>
<!DOCTYPE svg PUBLIC "-//W3C//DTD SVG 20010904//EN"
 "http://www.w3.org/TR/2001/REC-SVG-20010904/DTD/svg10.dtd">
<svg version="1.0" xmlns="http://www.w3.org/2000/svg"
 width="130.000000pt" height="130.000000pt" viewBox="0 0 130.000000 130.000000"
 preserveAspectRatio="xMidYMid meet">
<metadata>
Created by potrace 1.14, written by Peter Selinger 2001-2017
</metadata>
<g transform="translate(0.000000,130.000000) scale(0.100000,-0.100000)"
fill="#000000" stroke="none">
<path d="M122 1229 c-16 -6 -17 -40 -16 -435 1 -236 2 -432 3 -436 0 -5 24 -8
51 -8 l50 0 1 228 c0 125 0 320 -1 435 l-1 207 203 1 c112 1 192 4 178 5 -47
7 -451 9 -468 3z"/>
<path d="M876 1225 c-101 -20 -165 -97 -166 -199 0 -94 61 -170 180 -224 237
-107 251 -116 280 -172 24 -47 26 -119 5 -160 -57 -110 -264 -142 -420 -65
-27 13 -51 22 -53 20 -2 -2 13 -12 35 -23 138 -71 342 -69 437 3 115 88 109
292 -13 381 -25 18 -98 54 -161 79 -145 58 -187 85 -209 136 -39 85 0 169 94
206 59 23 221 11 309 -23 13 -5 17 -4 12 4 -9 14 -135 41 -213 45 -34 1 -87
-2 -117 -8z"/>
<path d="M230 810 c0 -4 34 -7 75 -6 41 0 75 3 75 7 0 4 -34 7 -75 7 -41 -1
-75 -4 -75 -8z"/>
<path d="M390 809 c0 -4 43 -6 95 -5 52 0 95 4 95 8 0 4 -43 6 -95 6 -52 -1
-95 -5 -95 -9z"/>
<path d="M1136 219 c12 -16 13 -138 1 -156 -6 -9 0 -13 20 -13 15 0 23 4 18 8
-6 4 -11 13 -10 21 0 25 23 23 41 -3 9 -14 23 -26 31 -26 12 0 12 3 -1 16 -41
40 -41 78 -2 94 20 8 20 9 1 9 -12 1 -27 -11 -37 -29 -25 -44 -34 -37 -33 27
0 50 -3 58 -20 62 -15 2 -17 0 -9 -10z"/>
<path d="M107 213 c-18 -3 -25 -8 -20 -16 12 -18 10 -131 -2 -139 -5 -4 4 -8
20 -8 17 0 26 4 20 8 -11 8 -13 52 -3 68 4 6 4 14 1 18 -4 4 -8 18 -9 31 -1
23 7 30 29 26 5 -1 6 3 2 9 -3 5 -7 9 -8 9 -1 -1 -14 -4 -30 -6z"/>
<path d="M160 206 c0 -2 6 -9 13 -15 10 -8 14 -7 14 4 0 8 -6 15 -14 15 -7 0
-13 -2 -13 -4z"/>
<path d="M672 198 c-7 -7 -12 -19 -12 -28 0 -20 31 -50 51 -50 36 0 46 -59 10
-61 -11 0 -12 -2 -3 -6 19 -7 42 16 42 43 0 18 -10 28 -37 42 -31 14 -38 23
-38 45 1 15 0 27 0 27 -1 0 -6 -5 -13 -12z"/>
<path d="M734 194 c3 -9 6 -21 6 -27 0 -8 3 -8 10 -1 12 12 3 44 -12 44 -6 0
-7 -7 -4 -16z"/>
<path d="M804 185 c3 -8 2 -15 -2 -15 -8 0 -6 -53 4 -97 9 -45 21 -22 16 31
-4 51 -3 55 19 59 24 4 24 4 2 6 -13 0 -23 8 -23 16 0 8 -5 15 -11 15 -6 0 -9
-7 -5 -15z"/>
<path d="M216 154 c-8 -21 -8 -24 4 -24 6 0 10 7 10 15 0 15 39 22 41 8 0 -5
2 -16 4 -25 2 -14 -3 -18 -24 -18 -35 0 -53 -18 -41 -41 7 -13 22 -17 55 -17
31 1 42 5 36 12 -4 6 -7 26 -6 44 1 19 -5 40 -12 48 -19 19 -59 18 -67 -2z
m61 -69 c0 -20 -37 -31 -48 -14 -11 18 -2 29 25 29 13 0 23 -6 23 -15z"/>
<path d="M337 161 c14 -9 13 -95 -1 -103 -6 -4 1 -8 17 -8 19 0 26 4 21 12 -9
15 -10 58 -1 82 5 12 13 15 28 11 13 -4 19 -3 16 3 -4 5 -25 9 -48 9 -22 0
-37 -2 -32 -6z"/>
<path d="M439 161 c9 -6 12 -24 10 -60 -3 -40 -1 -51 11 -51 12 0 14 10 12 43
-4 46 15 74 42 64 17 -7 20 -88 3 -99 -7 -5 0 -8 17 -8 21 0 26 3 19 13 -9 12
-9 58 1 84 3 7 14 13 25 13 15 0 20 -8 23 -45 2 -25 -1 -50 -6 -55 -7 -7 1
-10 20 -9 16 0 23 3 17 6 -7 2 -13 22 -13 43 0 21 -3 45 -6 54 -7 18 -49 22
-59 6 -4 -6 -13 -5 -25 3 -16 9 -24 9 -40 -1 -12 -7 -20 -8 -20 -2 0 5 -10 10
-22 10 -17 0 -19 -3 -9 -9z"/>
<path d="M903 163 c-15 -6 -17 -33 -3 -33 6 0 10 7 10 15 0 15 39 22 41 8 0
-5 2 -16 4 -25 2 -14 -4 -18 -26 -18 -33 0 -55 -30 -37 -48 7 -7 21 -12 33
-11 19 0 19 1 -2 9 -15 6 -21 15 -17 25 9 23 49 15 49 -10 0 -12 8 -21 20 -23
11 -2 16 0 10 5 -6 4 -10 24 -10 43 1 61 -24 83 -72 63z"/>
<path d="M1029 154 c-24 -29 -6 -104 24 -104 7 0 7 4 -1 12 -7 7 -12 31 -12
55 0 37 3 43 20 43 12 0 24 -9 29 -22 5 -15 10 -18 15 -9 20 33 -49 56 -75 25z"/>
<path d="M161 142 c-1 -7 -6 -10 -12 -7 -6 4 -5 -3 3 -14 10 -17 14 -18 16 -6
2 8 1 21 -1 28 -4 9 -6 9 -6 -1z"/>
<path d="M660 83 c0 -12 28 -38 34 -32 2 2 -5 13 -15 23 -11 11 -19 15 -19 9z"/>
<path d="M1082 64 c-7 -8 -8 -14 -3 -14 10 0 25 19 20 25 -2 1 -10 -3 -17 -11z"/>
</g>
</svg>
